<svg xmlns="http://www.w3.org/2000/svg" width="84.391" height="35" viewBox="0 0 84.391 35">
  <path id="Union_386" data-name="Union 386" d="M47.56,34.74V32.45a5.332,5.332,0,0,0,1.281.159c1.02,0,1.48-.49,1.99-1.869h-.67L46,20.72h3.53l2.58,6.9h.04v-.01l2.33-6.9h2.96L53.81,30.98C52.8,33.86,51.56,35,49.49,35A5.843,5.843,0,0,1,47.56,34.74Zm15.53-8.92c0-3.3,2.07-5.27,5.46-5.27,2.8,0,4.77,1.6,4.77,4.891v.869H66.2c.14,1.641.969,2.35,2.35,2.35,1.2,0,1.97-.429,2.049-1.4H73.32c-.06,2.29-1.97,3.63-4.83,3.63C65.16,30.89,63.09,29.12,63.09,25.82Zm3.19-1.15H70.6v-.16c0-1.139-.75-1.73-2.049-1.73A2.036,2.036,0,0,0,66.28,24.67ZM34.79,25.69c0-3.26,2.149-5.189,5.459-5.189s5.46,1.949,5.46,5.189-2.15,5.151-5.46,5.151S34.79,28.95,34.79,25.69Zm3.09,0c0,1.77.87,2.8,2.37,2.8s2.371-1.021,2.371-2.8-.87-2.839-2.371-2.839S37.88,23.92,37.88,25.69ZM23.44,27.31H26.2c0,.931.46,1.541,2.23,1.541,1.6,0,2.17-.471,2.17-1.2,0-.36-.18-.65-.71-.77a18.508,18.508,0,0,0-2.33-.28,7,7,0,0,1-3.17-.77,2.448,2.448,0,0,1-.95-1.97c0-2.17,2.23-3.37,5.01-3.37,3.29,0,4.79,1.26,4.79,3.59H30.52c-.02-1.05-.51-1.6-2.03-1.6-1.381,0-1.991.47-1.991,1.16a.827.827,0,0,0,.731.89,20.2,20.2,0,0,0,2.479.31,6.964,6.964,0,0,1,2.86.67V25.5a2.291,2.291,0,0,1,1.12,1.99c0,2.111-1.71,3.351-5.24,3.351S23.44,29.34,23.44,27.31ZM0,27.8c0-1.64,1.17-2.84,3.83-2.84H7.11v-.67c0-1.21-.69-1.7-2.11-1.7-1.16,0-1.831.49-1.831,1.3a4.245,4.245,0,0,0,.02.43H.34a5.172,5.172,0,0,1-.04-.59c0-2.03,1.79-3.23,4.83-3.23l.01-.01c3.18,0,5.05,1.419,5.05,4.1v6.09H7.11c.06-.51.14-1.42.14-2.03H7.23c-.31,1.42-1.44,2.191-3.27,2.191C1.62,30.84,0,29.83,0,27.8Zm2.77-.22c0,.77.67,1.181,1.79,1.181,1.61,0,2.54-.71,2.54-1.931H7.09v-.2H4.11C3.28,26.63,2.77,27.01,2.77,27.58ZM58.6,30.76V4.03h3.08l-.12,2.66h.04c.51-1.91,1.69-2.82,3.96-2.82,2.42,0,3.981,1.32,3.981,3.92V14.06H66.46V8.48h-.01c0-1.42-.81-2.05-2.17-2.05-1.63,0-2.6.95-2.6,2.86V30.76Zm-39.61-.02-2.62-3.69-1.62,1.64v2.05H11.67V16.68h3.08v8.87h.02l4.28-4.83H22.81L18.59,25.08l4.459,5.66Zm55.69-.011V20.71h3.08l-.12,2.86h.04c.43-1.91,1.5-3.02,3.47-3.02l-.01-.01c2.049,0,3.25,1.32,3.25,3.92,0,.57-.06,1.46-.1,1.99h-2.8c.041-.49.06-.99.06-1.3,0-1.46-.59-2.049-1.56-2.049-1.32,0-2.23,1.08-2.23,3.309v4.32ZM40.939,19.62V17.16H43.7v2.46Zm-4.138,0V17.16H39.56v2.46ZM46.99,11.18c0-1.64,1.17-2.839,3.83-2.839l.01-.01H54.1V7.66c0-1.21-.69-1.7-2.11-1.7-1.16,0-1.831.49-1.831,1.3a4.057,4.057,0,0,0,.021.429H47.34A5.17,5.17,0,0,1,47.3,7.1c0-2.03,1.65-3.23,4.829-3.23s5.05,1.42,5.05,4.1V14.06H54.1c.06-.509.14-1.42.14-2.03H54.22c-.31,1.419-1.44,2.19-3.27,2.19C48.61,14.22,46.99,13.21,46.99,11.18Zm2.77-.22c0,.769.67,1.18,1.79,1.18,1.61,0,2.54-.71,2.54-1.931h-.01v-.2H51.1C50.27,10.01,49.76,10.39,49.76,10.96ZM12.06,9.15c0-3.3,2.07-5.27,5.46-5.27,2.8,0,4.77,1.6,4.77,4.89v.87H15.17c.139,1.64.969,2.35,2.35,2.35,1.2,0,1.97-.43,2.049-1.4H22.29c-.06,2.29-1.97,3.63-4.83,3.63C14.13,14.22,12.06,12.45,12.06,9.15Zm3.19-1.16h4.32V7.83c0-1.14-.77-1.73-2.049-1.73A2.036,2.036,0,0,0,15.25,7.99ZM.64,10.69H3.4c0,.93.46,1.54,2.23,1.54,1.6,0,2.17-.47,2.17-1.2,0-.36-.18-.651-.71-.77a18.854,18.854,0,0,0-2.33-.28,6.983,6.983,0,0,1-3.17-.77A2.443,2.443,0,0,1,.64,7.24c0-2.17,2.23-3.36,5.01-3.37,3.289,0,4.79,1.26,4.79,3.59H7.72c-.02-1.05-.51-1.6-2.03-1.6-1.38,0-1.99.47-1.99,1.16a.826.826,0,0,0,.73.89,20.249,20.249,0,0,0,2.48.31,6.967,6.967,0,0,1,2.86.671V8.88a2.29,2.29,0,0,1,1.12,1.99c0,2.11-1.71,3.35-5.24,3.35S.64,12.72.64,10.69Zm41.94,3.37V8.48c0-1.42-.79-2.05-2.17-2.05-1.63,0-2.6.95-2.6,2.86H37.8v4.77H34.72V0H37.8V4.42c0,.38-.06,1.52-.12,2.27h.04c.51-1.91,1.69-2.82,3.96-2.82,2.42,0,3.98,1.32,3.98,3.92V14.06Zm-18.94,0V4.03h3.08L26.6,6.89h.04c.43-1.911,1.42-3.02,3.47-3.02s3.25,1.32,3.25,3.92c0,.57-.06,1.46-.1,1.99h-2.8c.041-.49.06-.99.06-1.3,0-1.46-.59-2.05-1.56-2.05-1.32,0-2.23,1.08-2.23,3.31h-.01v4.32Z"/>
</svg>
